<?xml version="1.0" encoding="utf-8"?>
<!DOCTYPE svg PUBLIC "-//W3C//DTD SVG 1.1//EN" "http://www.w3.org/Graphics/SVG/1.1/DTD/svg11.dtd">
<svg version="1.1" baseProfile="full"
 xmlns="http://www.w3.org/2000/svg"
 xmlns:xlink="http://www.w3.org/1999/xlink"
 xmlns:ev="http://www.w3.org/2001/xml-events" 
  height="24px" 
  width="12px" 
>
<path fill="rgb( 255, 255, 255 )"
 d="M10.992,0.691 C10.992,0.691 8.471,0.691 8.471,0.691 C8.471,0.691 3.40900000000011,0.311 3.40900000000011,5.65900000000001 C3.40900000000011,6.80200000000001 3.40900000000011,8.425 3.40900000000011,8.425 C3.40900000000011,8.425 0.35400000000004,8.425 0.35400000000004,8.425 C0.35400000000004,8.425 0.36400000000003,11.497 0.36400000000003,11.497 C0.36400000000003,11.497 3.4079999999999,11.497 3.4079999999999,11.497 C3.4079999999999,11.497 3.36300000000006,23.768 3.36300000000006,23.768 C3.36300000000006,23.768 7.99099999999999,23.768 7.99099999999999,23.768 C7.99099999999999,23.768 7.99099999999999,11.545 7.99099999999999,11.545 C7.99099999999999,11.545 10.646,11.497 10.646,11.497 C10.646,11.497 11.5989999999999,8.425 11.5989999999999,8.425 C11.5989999999999,8.425 7.94100000000003,8.425 7.94100000000003,8.425 C7.94100000000003,8.425 7.94100000000003,5.26300000000001 7.94100000000003,5.26300000000001 C7.94100000000003,5.26300000000001 7.904,3.86 9.5440000000001,3.86 C9.5440000000001,3.86 10.9770000000001,3.86 10.9770000000001,3.86 C10.9770000000001,3.86 10.992,0.691 10.992,0.691 Z "/>
</svg>
