<?xml version="1.0" encoding="utf-8"?>
<!-- Generator: Adobe Illustrator 18.0.0, SVG Export Plug-In . SVG Version: 6.00 Build 0)  -->
<!DOCTYPE svg PUBLIC "-//W3C//DTD SVG 1.1//EN" "http://www.w3.org/Graphics/SVG/1.1/DTD/svg11.dtd">
<svg version="1.1" id="Artwork" xmlns="http://www.w3.org/2000/svg" xmlns:xlink="http://www.w3.org/1999/xlink" x="0px" y="0px"
	 viewBox="0 0 217.4 24.2" enable-background="new 0 0 217.4 24.2" xml:space="preserve">
<polygon fill="#FFFFFF" points="4.8,0 0,4.8 0,24.2 14.5,24.2 19.3,19.3 33.8,19.3 33.8,24.2 48.3,24.2 53.2,19.3 53.2,0 38.7,0 
	33.8,4.8 29,4.8 19.3,4.8 19.3,0 "/>
<g>
	<path fill="#FFFFFF" d="M157.5,11.4c0.4-0.7,0.6-1.5,0.6-2.4c0-2.8-2.3-5.2-5.2-5.2h-10.8l-0.5,0.5v15.5l0.5,0.5H154
		c2.8,0,5.2-2.3,5.2-5.2C159.2,13.7,158.5,12.4,157.5,11.4z M145.8,8h7.2c0.6,0,1,0.5,1,1s-0.5,1-1,1h-7.2V8z M154,16.2h-8.2v-2.1
		h8.2c0.6,0,1,0.5,1,1C155.1,15.7,154.6,16.2,154,16.2z"/>
	<polygon fill="#FFFFFF" points="188.7,4.1 188.4,3.8 183.1,3.8 176.9,10 174.2,10 174.2,4.4 173.7,3.8 170.6,3.8 170.1,4.4 
		170.1,19.8 170.6,20.3 173.7,20.3 174.2,19.8 174.2,14.1 176.9,14.1 183.1,20.3 188.4,20.3 188.7,20.1 180.7,12.1 	"/>
	<polygon fill="#FFFFFF" points="125.8,3.8 115.3,14.3 115.3,4.4 114.8,3.8 111.7,3.8 111.2,4.4 111.2,19.8 111.7,20.3 115.1,20.3 
		125.6,9.8 125.6,19.8 126.1,20.3 129.2,20.3 129.7,19.8 129.7,4.4 129.2,3.8 	"/>
	<polygon fill="#FFFFFF" points="213.4,3.8 203,14.3 203,4.4 202.4,3.8 199.4,3.8 198.8,4.4 198.8,19.8 199.4,20.3 202.8,20.3 
		213.3,9.8 213.3,19.8 213.8,20.3 216.9,20.3 217.4,19.8 217.4,4.4 216.9,3.8 	"/>
	<polygon fill="#FFFFFF" points="95.7,3.8 95.2,4.4 95.2,10 83.8,10 83.8,4.4 83.3,3.8 80.2,3.8 79.7,4.4 79.7,19.8 80.2,20.3 
		83.3,20.3 83.8,19.8 83.8,14.1 95.2,14.1 95.2,19.8 95.7,20.3 98.8,20.3 99.3,19.8 99.3,4.4 98.8,3.8 	"/>
</g>
</svg>
