<?xml version="1.0" encoding="utf-8"?>
<!DOCTYPE svg PUBLIC "-//W3C//DTD SVG 1.1//EN" "http://www.w3.org/Graphics/SVG/1.1/DTD/svg11.dtd">
<svg version="1.1" baseProfile="full"
 xmlns="http://www.w3.org/2000/svg"
 xmlns:xlink="http://www.w3.org/1999/xlink"
 xmlns:ev="http://www.w3.org/2001/xml-events" 
  height="20px" 
  width="27px" 
>
<path fill="rgb( 255, 255, 255 )"
 d="M2.26700000000005,2.648 C3.01199999999994,3.062 11.797,8.789 12.1800000000001,9.002 C12.5650000000001,9.215 13.0619999999999,9.318 13.5630000000001,9.318 C14.0640000000001,9.318 14.5609999999999,9.215 14.9459999999999,9.002 C15.329,8.789 24.114,3.062 24.8589999999999,2.648 C25.604,2.23399999999999 26.309,0.93600000000001 24.9400000000001,0.93600000000001 C24.9400000000001,0.93600000000001 2.18599999999992,0.93600000000001 2.18599999999992,0.93600000000001 C0.81799999999998,0.93600000000001 1.52199999999993,2.23399999999999 2.26700000000005,2.648 ZM25.174,5.80200000000001 C24.328,6.259 15.4639999999999,11.877 14.9459999999999,12.156 C14.4269999999999,12.436 14.0640000000001,12.472 13.5630000000001,12.472 C13.0619999999999,12.472 12.6990000000001,12.436 12.1800000000001,12.156 C11.662,11.877 2.79899999999998,6.259 1.952,5.80200000000001 C1.35599999999999,5.48099999999999 1.3610000000001,5.858 1.3610000000001,6.149 C1.3610000000001,6.43899999999999 1.3610000000001,17.718 1.3610000000001,17.718 C1.3610000000001,18.379 2.21299999999997,19.23 2.87400000000002,19.23 C2.87400000000002,19.23 24.252,19.23 24.252,19.23 C24.913,19.23 25.7650000000001,18.379 25.7650000000001,17.718 C25.7650000000001,17.718 25.7650000000001,6.43899999999999 25.7650000000001,6.149 C25.7650000000001,5.858 25.77,5.48099999999999 25.174,5.80200000000001 Z "/>
</svg>
