<?xml version="1.0" encoding="utf-8"?>
<!DOCTYPE svg PUBLIC "-//W3C//DTD SVG 1.1//EN" "http://www.w3.org/Graphics/SVG/1.1/DTD/svg11.dtd">
<svg version="1.1" baseProfile="full"
 xmlns="http://www.w3.org/2000/svg"
 xmlns:xlink="http://www.w3.org/1999/xlink"
 xmlns:ev="http://www.w3.org/2001/xml-events" 
  height="22px" 
  width="27px" 
>
<path fill="rgb( 255, 255, 255 )"
 d="M26.3810000000001,2.848 C25.4269999999999,3.279 24.402,3.56999999999999 23.326,3.7 C24.425,3.03 25.268,1.96899999999999 25.665,0.705 C24.6369999999999,1.32599999999999 23.499,1.777 22.288,2.01900000000001 C21.318,0.967 19.9349999999999,0.31 18.4059999999999,0.31 C15.4690000000001,0.31 13.088,2.733 13.088,5.723 C13.088,6.14700000000001 13.135,6.56 13.2249999999999,6.956 C8.80600000000004,6.73099999999999 4.88599999999997,4.57599999999999 2.2639999999999,1.3 C1.80600000000004,2.09999999999999 1.54299999999989,3.03 1.54299999999989,4.02200000000001 C1.54299999999989,5.90000000000001 2.48199999999997,7.556 3.90900000000011,8.527 C3.03800000000001,8.499 2.21800000000007,8.256 1.5,7.851 C1.5,7.873 1.5,7.895 1.5,7.91800000000001 C1.5,10.542 3.33400000000006,12.729 5.76600000000008,13.226 C5.31999999999994,13.35 4.84999999999991,13.416 4.36500000000001,13.416 C4.02299999999991,13.416 3.69000000000005,13.382 3.36400000000003,13.319 C4.04099999999994,15.469 6.00600000000009,17.035 8.33300000000008,17.078 C6.51199999999994,18.531 4.22000000000003,19.396 1.72800000000007,19.396 C1.29899999999998,19.396 0.875,19.37 0.45900000000006,19.319 C2.8119999999999,20.856 5.60799999999995,21.752 8.61200000000008,21.752 C18.393,21.752 23.7429999999999,13.503 23.7429999999999,6.351 C23.7429999999999,6.116 23.7380000000001,5.88200000000001 23.7270000000001,5.65000000000001 C24.7660000000001,4.887 25.6679999999999,3.934 26.3810000000001,2.848 Z "/>
</svg>
